<svg width="24" height="24" viewBox="0 0 24 24" fill="none" xmlns="http://www.w3.org/2000/svg">
<mask id="mask0_79:299" style="mask-type:alpha" maskUnits="userSpaceOnUse" x="0" y="0" width="24" height="24">
<path d="M12.3112 13.1048C12.2104 13.1113 12.1087 13.1147 12.0062 13.1147C11.9249 13.1147 11.8441 13.1126 11.7639 13.1084C8.6784 13.2149 5.94178 14.769 4.56581 17.3469C4.44836 17.5661 4.32825 17.8655 4.23424 18.1832C6.05305 20.4644 8.85592 21.9265 12 21.9265C15.2302 21.9265 18.1003 20.3832 19.9131 17.9938C19.8309 17.7492 19.7351 17.5225 19.641 17.3458C18.2469 14.7327 15.4504 13.1707 12.3112 13.1048ZM14.8513 12.1291C17.3748 12.7912 19.5258 14.3684 20.7707 16.6524C21.5085 15.2647 21.9265 13.6811 21.9265 12C21.9265 6.51813 17.4819 2.07353 12 2.07353C6.51813 2.07353 2.07353 6.51813 2.07353 12C2.07353 13.76 2.53165 15.413 3.33514 16.8464C3.35617 16.8038 3.37737 16.7625 3.39869 16.7227C4.61457 14.4448 6.72443 12.8593 9.21052 12.1684C8.16172 11.3603 7.48765 10.1073 7.48765 8.69762C7.48765 6.25347 9.51396 4.27968 12.0062 4.27968C14.4977 4.27968 16.5238 6.25362 16.5238 8.69762C16.5238 10.0846 15.8712 11.32 14.8513 12.1291ZM12 23.25C5.78716 23.25 0.75 18.2128 0.75 12C0.75 5.78716 5.78716 0.75 12 0.75C18.2128 0.75 23.25 5.78716 23.25 12C23.25 18.2128 18.2128 23.25 12 23.25ZM15.2003 8.69762C15.2003 6.99243 13.7743 5.60321 12.0062 5.60321C10.2373 5.60321 8.81118 6.99233 8.81118 8.69762C8.81118 10.4027 10.237 11.7911 12.0062 11.7911C13.7745 11.7911 15.2003 10.4026 15.2003 8.69762Z" fill="white"/>
</mask>
<g mask="url(#mask0_79:299)">
<path d="M12.3112 13.1048C12.2104 13.1113 12.1087 13.1147 12.0062 13.1147C11.9249 13.1147 11.8441 13.1126 11.7639 13.1084C8.6784 13.2149 5.94178 14.769 4.56581 17.3469C4.44836 17.5661 4.32825 17.8655 4.23424 18.1832C6.05305 20.4644 8.85592 21.9265 12 21.9265C15.2302 21.9265 18.1003 20.3832 19.9131 17.9938C19.8309 17.7492 19.7351 17.5225 19.641 17.3458C18.2469 14.7327 15.4504 13.1707 12.3112 13.1048ZM14.8513 12.1291C17.3748 12.7912 19.5258 14.3684 20.7707 16.6524C21.5085 15.2647 21.9265 13.6811 21.9265 12C21.9265 6.51813 17.4819 2.07353 12 2.07353C6.51813 2.07353 2.07353 6.51813 2.07353 12C2.07353 13.76 2.53165 15.413 3.33514 16.8464C3.35617 16.8038 3.37737 16.7625 3.39869 16.7227C4.61457 14.4448 6.72443 12.8593 9.21052 12.1684C8.16172 11.3603 7.48765 10.1073 7.48765 8.69762C7.48765 6.25347 9.51396 4.27968 12.0062 4.27968C14.4977 4.27968 16.5238 6.25362 16.5238 8.69762C16.5238 10.0846 15.8712 11.32 14.8513 12.1291ZM12 23.25C5.78716 23.25 0.75 18.2128 0.75 12C0.75 5.78716 5.78716 0.75 12 0.75C18.2128 0.75 23.25 5.78716 23.25 12C23.25 18.2128 18.2128 23.25 12 23.25ZM15.2003 8.69762C15.2003 6.99243 13.7743 5.60321 12.0062 5.60321C10.2373 5.60321 8.81118 6.99233 8.81118 8.69762C8.81118 10.4027 10.237 11.7911 12.0062 11.7911C13.7745 11.7911 15.2003 10.4026 15.2003 8.69762Z" fill="white"/>
</g>
</svg>
